<mxfile host="app.diagrams.net" agent="Mozilla/5.0 (Windows NT 10.0; Win64; x64; rv:136.0) Gecko/20100101 Firefox/136.0" version="26.0.15">
  <diagram name="第 1 页" id="qqnILLaS_TWkCkZgS5z9">
    <mxGraphModel dx="1430" dy="763" grid="1" gridSize="10" guides="1" tooltips="1" connect="1" arrows="1" fold="1" page="1" pageScale="1" pageWidth="827" pageHeight="1169" math="0" shadow="0">
      <root>
        <mxCell id="0" />
        <mxCell id="1" parent="0" />
        <mxCell id="i305Q2q4eE8xXw0m4s4P-9" style="edgeStyle=orthogonalEdgeStyle;rounded=0;orthogonalLoop=1;jettySize=auto;html=1;" edge="1" parent="1" source="i305Q2q4eE8xXw0m4s4P-1">
          <mxGeometry relative="1" as="geometry">
            <mxPoint x="330" y="420" as="targetPoint" />
          </mxGeometry>
        </mxCell>
        <mxCell id="i305Q2q4eE8xXw0m4s4P-1" value="qwen72b" style="rounded=1;whiteSpace=wrap;html=1;fillColor=#ffe6cc;strokeColor=#d79b00;" vertex="1" parent="1">
          <mxGeometry x="200" y="400" width="80" height="40" as="geometry" />
        </mxCell>
        <mxCell id="i305Q2q4eE8xXw0m4s4P-13" style="edgeStyle=orthogonalEdgeStyle;rounded=0;orthogonalLoop=1;jettySize=auto;html=1;" edge="1" parent="1" source="i305Q2q4eE8xXw0m4s4P-2">
          <mxGeometry relative="1" as="geometry">
            <mxPoint x="520" y="420" as="targetPoint" />
          </mxGeometry>
        </mxCell>
        <mxCell id="i305Q2q4eE8xXw0m4s4P-2" value="qwen72b" style="rounded=1;whiteSpace=wrap;html=1;fillColor=#ffe6cc;strokeColor=#d79b00;" vertex="1" parent="1">
          <mxGeometry x="400" y="400" width="80" height="40" as="geometry" />
        </mxCell>
        <mxCell id="i305Q2q4eE8xXw0m4s4P-4" style="edgeStyle=orthogonalEdgeStyle;rounded=0;orthogonalLoop=1;jettySize=auto;html=1;entryX=0.5;entryY=0;entryDx=0;entryDy=0;" edge="1" parent="1" source="i305Q2q4eE8xXw0m4s4P-3" target="i305Q2q4eE8xXw0m4s4P-1">
          <mxGeometry relative="1" as="geometry" />
        </mxCell>
        <mxCell id="i305Q2q4eE8xXw0m4s4P-3" value="rag" style="rounded=0;whiteSpace=wrap;html=1;" vertex="1" parent="1">
          <mxGeometry x="200" y="320" width="80" height="40" as="geometry" />
        </mxCell>
        <mxCell id="i305Q2q4eE8xXw0m4s4P-5" value="top1" style="text;html=1;align=center;verticalAlign=middle;resizable=0;points=[];autosize=1;strokeColor=none;fillColor=none;" vertex="1" parent="1">
          <mxGeometry x="230" y="368" width="50" height="30" as="geometry" />
        </mxCell>
        <mxCell id="i305Q2q4eE8xXw0m4s4P-6" value="query" style="text;html=1;align=center;verticalAlign=middle;resizable=0;points=[];autosize=1;strokeColor=none;fillColor=none;" vertex="1" parent="1">
          <mxGeometry x="130" y="402" width="50" height="30" as="geometry" />
        </mxCell>
        <mxCell id="i305Q2q4eE8xXw0m4s4P-8" style="edgeStyle=orthogonalEdgeStyle;rounded=0;orthogonalLoop=1;jettySize=auto;html=1;entryX=0.007;entryY=0.432;entryDx=0;entryDy=0;entryPerimeter=0;" edge="1" parent="1" source="i305Q2q4eE8xXw0m4s4P-6" target="i305Q2q4eE8xXw0m4s4P-1">
          <mxGeometry relative="1" as="geometry" />
        </mxCell>
        <mxCell id="i305Q2q4eE8xXw0m4s4P-11" style="edgeStyle=orthogonalEdgeStyle;rounded=0;orthogonalLoop=1;jettySize=auto;html=1;entryX=0;entryY=0.5;entryDx=0;entryDy=0;" edge="1" parent="1" source="i305Q2q4eE8xXw0m4s4P-10" target="i305Q2q4eE8xXw0m4s4P-2">
          <mxGeometry relative="1" as="geometry" />
        </mxCell>
        <mxCell id="i305Q2q4eE8xXw0m4s4P-10" value="ans" style="text;html=1;align=center;verticalAlign=middle;resizable=0;points=[];autosize=1;strokeColor=none;fillColor=none;" vertex="1" parent="1">
          <mxGeometry x="330" y="405" width="40" height="30" as="geometry" />
        </mxCell>
        <mxCell id="i305Q2q4eE8xXw0m4s4P-12" value="judge" style="text;html=1;align=center;verticalAlign=middle;resizable=0;points=[];autosize=1;strokeColor=none;fillColor=none;" vertex="1" parent="1">
          <mxGeometry x="414" y="368" width="50" height="30" as="geometry" />
        </mxCell>
        <mxCell id="i305Q2q4eE8xXw0m4s4P-14" value="yes/no" style="text;html=1;align=center;verticalAlign=middle;resizable=0;points=[];autosize=1;strokeColor=none;fillColor=none;" vertex="1" parent="1">
          <mxGeometry x="520" y="405" width="60" height="30" as="geometry" />
        </mxCell>
      </root>
    </mxGraphModel>
  </diagram>
</mxfile>
